<?xml version="1.0" encoding="UTF-8" standalone="no"?>
<svg
   xmlns:dc="http://purl.org/dc/elements/1.1/"
   xmlns:cc="http://creativecommons.org/ns#"
   xmlns:rdf="http://www.w3.org/1999/02/22-rdf-syntax-ns#"
   xmlns:svg="http://www.w3.org/2000/svg"
   xmlns="http://www.w3.org/2000/svg"
   xmlns:sodipodi="http://sodipodi.sourceforge.net/DTD/sodipodi-0.dtd"
   xmlns:inkscape="http://www.inkscape.org/namespaces/inkscape"
   width="160mm"
   height="75mm"
   viewBox="0 0 160 75"
   version="1.1"
   id="svg5"
   sodipodi:docname="logo_gisteiz.svg"
   inkscape:version="1.0.1 (3bc2e813f5, 2020-09-07)"
   inkscape:export-filename="logo2.png"
   inkscape:export-xdpi="96"
   inkscape:export-ydpi="96">
  <metadata
     id="metadata14">
    <rdf:RDF>
      <cc:Work
         rdf:about="">
        <dc:format>image/svg+xml</dc:format>
        <dc:type
           rdf:resource="http://purl.org/dc/dcmitype/StillImage" />
        <dc:title></dc:title>
      </cc:Work>
    </rdf:RDF>
  </metadata>
  <sodipodi:namedview
     id="namedview7"
     pagecolor="#ffffff"
     bordercolor="#999999"
     borderopacity="1"
     inkscape:showpageshadow="0"
     inkscape:pageopacity="0"
     inkscape:pagecheckerboard="0"
     inkscape:deskcolor="#d1d1d1"
     inkscape:document-units="mm"
     showgrid="false"
     showguides="true"
     inkscape:zoom="1.4324916"
     inkscape:cx="272.60195"
     inkscape:cy="117.62722"
     inkscape:window-width="1920"
     inkscape:window-height="1017"
     inkscape:window-x="-8"
     inkscape:window-y="-8"
     inkscape:window-maximized="1"
     inkscape:current-layer="layer1"
     inkscape:document-rotation="0">
    <inkscape:grid
       type="xygrid"
       id="grid4727"
       originx="0"
       originy="0" />
  </sodipodi:namedview>
  <defs
     id="defs2" />
  <g
     inkscape:label="Capa 1"
     inkscape:groupmode="layer"
     id="layer1">
    <rect
       style="fill:#1c4ea9;fill-opacity:1;stroke-width:0.213934;stroke-miterlimit:10"
       id="rect234"
       width="160.42302"
       height="75.603378"
       x="-0.17701244"
       y="-0.36555839" />
    <g
       id="g4725"
       transform="translate(1.4235142,-1.7724843)">
      <g
         id="g4743"
         transform="translate(-19.068137,-0.78362207)">
        <g
           aria-label="GISteiz"
           id="text4278"
           style="font-size:35.2778px;fill:#000000;fill-opacity:1;stroke-width:0.25;stroke-miterlimit:10">
          <path
             d="m 78.485164,41.928041 q 0,2.610557 0.388055,4.162781 0.388056,1.552223 1.305279,2.257779 0.952501,0.705556 2.610557,0.846667 V 46.7611 l -1.940279,-4.833059 h 8.290284 v 11.359452 q -1.12889,0.740834 -2.928058,1.164168 -1.799168,0.388055 -4.127503,0.388055 -3.386669,0 -5.856115,-1.27 -2.469446,-1.270001 -3.810002,-4.092225 -1.340557,-2.857502 -1.340557,-7.514172 0,-4.691948 1.44639,-7.584727 1.44639,-2.89278 4.056947,-4.233337 2.610558,-1.340556 6.067782,-1.340556 1.234723,0 2.57528,0.211667 1.340556,0.211667 2.751668,0.493889 l -0.635,5.785559 q -1.164168,-0.211666 -2.010835,-0.3175 -0.811389,-0.141111 -1.658057,-0.141111 -1.834445,0 -2.998613,0.599723 -1.128889,0.599722 -1.658056,2.151946 -0.529167,1.516945 -0.529167,4.339169 z"
             style="font-style:normal;font-variant:normal;font-weight:normal;font-stretch:normal;font-size:35.2778px;font-family:'Protest Strike';-inkscape-font-specification:'Protest Strike';fill:#000000;fill-opacity:1;stroke-width:0.25"
             id="path839" />
          <path
             d="m 91.255691,29.086921 h 6.879171 v 25.400017 h -6.879171 z"
             style="font-style:normal;font-variant:normal;font-weight:normal;font-stretch:normal;font-size:35.2778px;font-family:'Protest Strike';-inkscape-font-specification:'Protest Strike';fill:#000000;fill-opacity:1;stroke-width:0.25"
             id="path841" />
          <path
             d="m 107.65986,48.736657 q 1.34056,0 2.01084,-0.388056 0.67028,-0.388056 0.67028,-1.270001 0,-0.599722 -0.3175,-0.9525 -0.3175,-0.352778 -1.12889,-0.705557 l -3.73945,-1.728612 q -2.08139,-0.9525 -3.21028,-2.540001 -1.12889,-1.587502 -1.12889,-4.621392 0,-3.880559 2.01084,-5.78556 2.04611,-1.940279 6.73806,-1.975557 1.94027,0 3.52778,0.176389 1.5875,0.176389 2.54,0.388056 0.9525,0.176389 0.9525,0.176389 l -0.70556,5.679726 q 0,0 -0.88194,-0.105833 -0.84667,-0.105834 -2.11667,-0.176389 -1.27,-0.105834 -2.46945,-0.105834 -1.27,0 -1.94028,0.388056 -0.635,0.352778 -0.635,1.375834 0,0.564445 0.49389,0.952501 0.49389,0.352778 1.37584,0.740834 l 2.99861,1.305278 q 2.39889,1.058334 3.4925,2.645836 1.09361,1.552223 1.09361,4.445003 0,3.915836 -2.04611,6.032504 -2.04611,2.116668 -6.73806,2.151945 -2.32833,0 -4.33917,-0.3175 -2.01083,-0.282222 -3.56306,-0.670278 l 0.70556,-5.679726 q 0,0 0.84667,0.141111 0.88194,0.141111 2.32833,0.282223 1.44639,0.141111 3.175,0.141111 z"
             style="font-style:normal;font-variant:normal;font-weight:normal;font-stretch:normal;font-size:35.2778px;font-family:'Protest Strike';-inkscape-font-specification:'Protest Strike';fill:#000000;fill-opacity:1;stroke-width:0.25"
             id="path843" />
          <path
             d="m 127.16844,34.202203 h 3.84528 v 4.762503 h -3.84528 v 8.784172 q 0,0.987779 0.49389,1.44639 0.52916,0.458612 1.65805,0.458612 0.56445,0 0.98778,-0.03528 0.42334,-0.07056 0.70556,-0.141111 v 4.691947 q -0.84667,0.282223 -1.79917,0.458612 -0.91722,0.211666 -1.86972,0.211666 -3.24556,0 -4.90362,-1.375834 -1.62278,-1.411112 -1.62278,-5.009448 v -9.489728 h -2.64583 v -4.762503 h 2.64583 V 29.7572 h 6.35001 z"
             style="font-style:normal;font-variant:normal;font-weight:normal;font-stretch:normal;font-size:35.2778px;font-family:'Protest Strike';-inkscape-font-specification:'Protest Strike';fill:#000000;fill-opacity:1;stroke-width:0.25"
             id="path845" />
          <path
             d="m 141.73814,54.839716 q -2.08139,0 -3.81,-0.458611 -1.69334,-0.458611 -2.92806,-1.622779 -1.23473,-1.164167 -1.905,-3.21028 -0.67028,-2.046112 -0.67028,-5.221114 0,-5.150559 1.905,-7.761117 1.94028,-2.645835 6.20889,-2.645835 3.88056,0 5.60917,2.151946 1.76389,2.116668 1.76389,6.314727 0,0.987778 -0.0706,2.046112 -0.0706,1.023056 -0.24695,1.869724 h -8.43139 q 0.21167,2.151945 1.19944,2.892779 0.98778,0.705556 3.31612,0.705556 0.81139,0 1.65805,-0.141111 0.88195,-0.141111 1.69334,-0.3175 v 4.797781 q -1.23473,0.246944 -2.61056,0.423333 -1.34056,0.176389 -2.68111,0.176389 z m -0.9525,-16.263066 q -1.41111,0 -1.65806,3.810003 h 2.89278 q 0,-0.776112 -0.0706,-1.658057 -0.0353,-0.881945 -0.3175,-1.516946 -0.24694,-0.635 -0.84666,-0.635 z"
             style="font-style:normal;font-variant:normal;font-weight:normal;font-stretch:normal;font-size:35.2778px;font-family:'Protest Strike';-inkscape-font-specification:'Protest Strike';fill:#000000;fill-opacity:1;stroke-width:0.25"
             id="path847" />
          <path
             d="m 149.852,34.202203 h 6.35 v 20.284735 h -6.35 z m -0.17639,-6.350005 h 6.70278 v 4.797781 h -6.70278 z"
             style="font-style:normal;font-variant:normal;font-weight:normal;font-stretch:normal;font-size:35.2778px;font-family:'Protest Strike';-inkscape-font-specification:'Protest Strike';fill:#000000;fill-opacity:1;stroke-width:0.25"
             id="path849" />
          <path
             d="m 158.67139,50.60638 6.06778,-11.465285 h -5.82084 v -4.938892 h 13.44084 v 3.739447 l -6.13833,11.606396 h 6.45583 v 4.938892 h -14.00528 z"
             style="font-style:normal;font-variant:normal;font-weight:normal;font-stretch:normal;font-size:35.2778px;font-family:'Protest Strike';-inkscape-font-specification:'Protest Strike';fill:#000000;fill-opacity:1;stroke-width:0.25"
             id="path851" />
        </g>
        <g
           aria-label="development"
           id="text4278-9"
           style="font-size:17.6389px;letter-spacing:0.635px;fill:#ffffff;fill-opacity:1;stroke-width:0.25;stroke-miterlimit:10">
          <path
             d="m 74.251824,71.590772 q -0.97014,0 -1.60514,-0.405695 -0.617362,-0.423333 -0.987778,-1.146528 -0.352779,-0.723195 -0.511529,-1.622779 -0.141111,-0.917223 -0.141111,-1.92264 0,-2.89278 0.899584,-4.127503 0.917223,-1.234723 2.628196,-1.234723 0.776112,0 1.728613,0.3175 v -2.875141 l 3.175002,-0.47625 v 13.31737 h -2.698752 l -0.264584,-0.776112 q -0.388055,0.440973 -0.970139,0.705556 -0.582084,0.246945 -1.252362,0.246945 z m 1.040695,-2.469446 q 0.194028,0 0.440973,-0.07056 0.246944,-0.07055 0.529167,-0.229305 v -5.115282 q -0.388056,-0.105833 -0.723195,-0.105833 -0.81139,0 -1.040695,0.740834 -0.211667,0.740834 -0.211667,2.24014 0,1.393473 0.211667,1.975557 0.211666,0.564445 0.79375,0.564445 z"
             style="font-style:normal;font-variant:normal;font-weight:normal;font-stretch:normal;font-size:17.6389px;font-family:'Protest Strike';-inkscape-font-specification:'Protest Strike';fill:#ffffff;fill-opacity:1;stroke-width:0.25"
             id="path854" />
          <path
             d="m 85.787633,71.590772 q -1.040695,0 -1.905002,-0.229306 -0.846667,-0.229305 -1.464028,-0.811389 -0.617362,-0.582084 -0.952501,-1.60514 -0.335139,-1.023056 -0.335139,-2.610557 0,-2.57528 0.952501,-3.880559 0.970139,-1.322917 3.104446,-1.322917 1.940279,0 2.804585,1.075973 0.881945,1.058334 0.881945,3.157363 0,0.493889 -0.03528,1.023056 -0.03528,0.511528 -0.123473,0.934862 h -4.215697 q 0.105833,1.075973 0.599723,1.44639 0.493889,0.352778 1.658056,0.352778 0.405695,0 0.829029,-0.07056 0.440972,-0.07055 0.846667,-0.15875 v 2.398891 q -0.617362,0.123472 -1.305279,0.211666 -0.670278,0.08819 -1.340556,0.08819 z m -0.476251,-8.131533 q -0.705556,0 -0.829028,1.905001 h 1.44639 q 0,-0.388056 -0.03528,-0.829028 -0.01764,-0.440973 -0.15875,-0.758473 -0.123472,-0.3175 -0.423334,-0.3175 z"
             style="font-style:normal;font-variant:normal;font-weight:normal;font-stretch:normal;font-size:17.6389px;font-family:'Protest Strike';-inkscape-font-specification:'Protest Strike';fill:#ffffff;fill-opacity:1;stroke-width:0.25"
             id="path856" />
          <path
             d="M 91.961207,71.414383 89.597594,61.272015 h 3.263197 l 1.023056,6.720421 h 0.03528 l 0.987778,-6.720421 h 3.175002 l -2.39889,10.142368 z"
             style="font-style:normal;font-variant:normal;font-weight:normal;font-stretch:normal;font-size:17.6389px;font-family:'Protest Strike';-inkscape-font-specification:'Protest Strike';fill:#ffffff;fill-opacity:1;stroke-width:0.25"
             id="path858" />
          <path
             d="m 103.54993,71.590772 q -1.0407,0 -1.905,-0.229306 -0.84667,-0.229305 -1.46403,-0.811389 -0.617364,-0.582084 -0.952503,-1.60514 -0.335139,-1.023056 -0.335139,-2.610557 0,-2.57528 0.9525,-3.880559 0.970142,-1.322917 3.104442,-1.322917 1.94028,0 2.80459,1.075973 0.88195,1.058334 0.88195,3.157363 0,0.493889 -0.0353,1.023056 -0.0353,0.511528 -0.12347,0.934862 h -4.2157 q 0.10583,1.075973 0.59972,1.44639 0.49389,0.352778 1.65806,0.352778 0.40569,0 0.82903,-0.07056 0.44097,-0.07055 0.84666,-0.15875 v 2.398891 q -0.61736,0.123472 -1.30528,0.211666 -0.67027,0.08819 -1.34055,0.08819 z m -0.47625,-8.131533 q -0.70556,0 -0.82903,1.905001 h 1.44639 q 0,-0.388056 -0.0353,-0.829028 -0.0176,-0.440973 -0.15875,-0.758473 -0.12347,-0.3175 -0.42333,-0.3175 z"
             style="font-style:normal;font-variant:normal;font-weight:normal;font-stretch:normal;font-size:17.6389px;font-family:'Protest Strike';-inkscape-font-specification:'Protest Strike';fill:#ffffff;fill-opacity:1;stroke-width:0.25"
             id="path860" />
          <path
             d="m 111.41686,71.414383 h -3.175 V 58.520346 l 3.175,-0.423333 z"
             style="font-style:normal;font-variant:normal;font-weight:normal;font-stretch:normal;font-size:17.6389px;font-family:'Protest Strike';-inkscape-font-specification:'Protest Strike';fill:#ffffff;fill-opacity:1;stroke-width:0.25"
             id="path862" />
          <path
             d="m 117.46697,71.590772 q -1.56986,0 -2.54,-0.529167 -0.9525,-0.529167 -1.39347,-1.675696 -0.42334,-1.164167 -0.42334,-3.033891 0,-1.869723 0.42334,-3.016252 0.44097,-1.146528 1.39347,-1.675695 0.97014,-0.529167 2.54,-0.529167 1.5875,0 2.54,0.529167 0.9525,0.529167 1.37584,1.675695 0.44097,1.146529 0.44097,3.016252 0,1.869724 -0.44097,3.033891 -0.42334,1.146529 -1.37584,1.675696 -0.9525,0.529167 -2.54,0.529167 z m -0.0176,-2.487085 q 0.59973,0 0.84667,-0.635 0.24694,-0.65264 0.24694,-2.09903 0,-1.464028 -0.24694,-2.099029 -0.24694,-0.652639 -0.84667,-0.652639 -0.58208,0 -0.82903,0.652639 -0.2293,0.635001 -0.2293,2.099029 0,1.44639 0.2293,2.09903 0.24695,0.635 0.82903,0.635 z"
             style="font-style:normal;font-variant:normal;font-weight:normal;font-stretch:normal;font-size:17.6389px;font-family:'Protest Strike';-inkscape-font-specification:'Protest Strike';fill:#ffffff;fill-opacity:1;stroke-width:0.25"
             id="path864" />
          <path
             d="M 123.51709,74.060218 V 61.272015 h 2.69875 l 0.26458,0.811389 q 0.4057,-0.458611 0.97014,-0.705556 0.58209,-0.246944 1.25236,-0.246944 0.97014,0 1.5875,0.423333 0.63501,0.405695 0.98778,1.12889 0.37042,0.723195 0.51153,1.640418 0.15875,0.899584 0.15875,1.905001 0,2.89278 -0.89958,4.127503 -0.89959,1.234723 -2.6282,1.234723 -0.77611,0 -1.72861,-0.3175 v 2.328335 z m 3.89819,-4.938892 q 0.81139,0 1.02306,-0.740834 0.22931,-0.740834 0.22931,-2.24014 0,-1.393474 -0.21167,-1.957918 -0.21167,-0.582084 -0.79375,-0.582084 -0.17639,0 -0.42333,0.07056 -0.24695,0.07055 -0.54681,0.229305 v 5.115281 q 0.40569,0.105834 0.72319,0.105834 z"
             style="font-style:normal;font-variant:normal;font-weight:normal;font-stretch:normal;font-size:17.6389px;font-family:'Protest Strike';-inkscape-font-specification:'Protest Strike';fill:#ffffff;fill-opacity:1;stroke-width:0.25"
             id="path866" />
          <path
             d="m 138.19262,64.676323 q 0,-1.075973 -0.81139,-1.075973 -0.3175,0 -0.56444,0.194028 v 7.620005 h -3.175 V 61.272015 h 2.69875 l 0.2293,0.687917 q 0.98778,-0.829028 2.15195,-0.829028 0.67028,0 1.21708,0.264583 0.54681,0.264584 0.89959,0.793751 0.56444,-0.546806 1.1818,-0.793751 0.635,-0.264583 1.27,-0.264583 1.14653,0 1.88737,0.758473 0.74083,0.758472 0.74083,2.275418 v 7.249588 h -3.175 v -6.73806 q 0,-1.075973 -0.81139,-1.075973 -0.35278,0 -0.58208,0.176389 0,0.08819 0,0.194028 0.0176,0.105833 0.0176,0.194028 v 7.249588 h -3.175 z"
             style="font-style:normal;font-variant:normal;font-weight:normal;font-stretch:normal;font-size:17.6389px;font-family:'Protest Strike';-inkscape-font-specification:'Protest Strike';fill:#ffffff;fill-opacity:1;stroke-width:0.25"
             id="path868" />
          <path
             d="m 152.18027,71.590772 q -1.0407,0 -1.905,-0.229306 -0.84667,-0.229305 -1.46403,-0.811389 -0.61736,-0.582084 -0.9525,-1.60514 -0.33514,-1.023056 -0.33514,-2.610557 0,-2.57528 0.9525,-3.880559 0.97014,-1.322917 3.10445,-1.322917 1.94028,0 2.80458,1.075973 0.88195,1.058334 0.88195,3.157363 0,0.493889 -0.0353,1.023056 -0.0353,0.511528 -0.12347,0.934862 h -4.2157 q 0.10583,1.075973 0.59972,1.44639 0.49389,0.352778 1.65806,0.352778 0.40569,0 0.82903,-0.07056 0.44097,-0.07055 0.84667,-0.15875 v 2.398891 q -0.61737,0.123472 -1.30528,0.211666 -0.67028,0.08819 -1.34056,0.08819 z m -0.47625,-8.131533 q -0.70556,0 -0.82903,1.905001 h 1.44639 q 0,-0.388056 -0.0353,-0.829028 -0.0176,-0.440973 -0.15875,-0.758473 -0.12347,-0.3175 -0.42333,-0.3175 z"
             style="font-style:normal;font-variant:normal;font-weight:normal;font-stretch:normal;font-size:17.6389px;font-family:'Protest Strike';-inkscape-font-specification:'Protest Strike';fill:#ffffff;fill-opacity:1;stroke-width:0.25"
             id="path870" />
          <path
             d="m 159.80025,61.959932 q 1.0407,-0.829028 2.25778,-0.829028 1.21709,0 2.01084,0.758473 0.81139,0.758472 0.81139,2.275418 v 7.249588 h -3.175 v -6.73806 q 0,-1.075973 -0.97014,-1.075973 -0.38806,0 -0.68792,0.194028 v 7.620005 h -3.175 V 61.272015 h 2.69875 z"
             style="font-style:normal;font-variant:normal;font-weight:normal;font-stretch:normal;font-size:17.6389px;font-family:'Protest Strike';-inkscape-font-specification:'Protest Strike';fill:#ffffff;fill-opacity:1;stroke-width:0.25"
             id="path872" />
          <path
             d="m 170.80692,61.272015 h 1.92264 v 2.381252 h -1.92264 v 4.392086 q 0,0.493889 0.24694,0.723195 0.26458,0.229306 0.82903,0.229306 0.28222,0 0.49389,-0.01764 0.21166,-0.03528 0.35278,-0.07056 v 2.345974 q -0.42334,0.141111 -0.89959,0.229306 -0.45861,0.105833 -0.93486,0.105833 -1.62278,0 -2.45181,-0.687917 -0.81139,-0.705556 -0.81139,-2.504724 V 63.653267 H 166.309 v -2.381252 h 1.32291 v -2.222501 h 3.17501 z"
             style="font-style:normal;font-variant:normal;font-weight:normal;font-stretch:normal;font-size:17.6389px;font-family:'Protest Strike';-inkscape-font-specification:'Protest Strike';fill:#ffffff;fill-opacity:1;stroke-width:0.25"
             id="path874" />
        </g>
      </g>
    </g>
  </g>
</svg>
